<svg xmlns="http://www.w3.org/2000/svg" width="17.002" height="17" viewBox="0 0 17.002 17">
  <g id="cogwheel" transform="translate(0 1.983)">
    <path id="Path_54" data-name="Path 54" d="M9.512,17.017H7.377a.91.91,0,0,1-.9-.763l-.251-1.54c-.114-.041-.227-.087-.338-.134l-1.24.944A.937.937,0,0,1,3.47,15.46L1.921,13.994a.919.919,0,0,1-.153-1.132l.861-1.431a6.556,6.556,0,0,1-.27-.654L.716,10.415A.907.907,0,0,1,0,9.524V7.39a.908.908,0,0,1,.765-.9l1.675-.273c.067-.168.141-.334.221-.5L1.741,4.215a.916.916,0,0,1,.146-1.132L3.428,1.605a.928.928,0,0,1,1.177-.071l1.4,1.053c.066-.026.131-.051.2-.075L6.479.78a.908.908,0,0,1,.9-.763H9.512a.916.916,0,0,1,.89.717l.391,1.777c.061.022.121.043.18.067l1.5-1.019a.931.931,0,0,1,1.139.093l1.55,1.467a.906.906,0,0,1,.126,1.175L14.331,5.7q.127.255.231.52l1.676.274A.907.907,0,0,1,17,7.4V9.53a.915.915,0,0,1-.717.889l-1.643.36a6.175,6.175,0,0,1-.24.589l.915,1.33a.909.909,0,0,1-.12,1.174l-1.54,1.477a.929.929,0,0,1-1.139.1l-1.342-.9q-.207.093-.426.173L10.4,16.3A.918.918,0,0,1,9.512,17.017ZM7.5,15.964H9.4l.386-1.756a.528.528,0,0,1,.356-.39,5.368,5.368,0,0,0,.84-.339.527.527,0,0,1,.532.032l1.5,1,1.37-1.314-1.022-1.485a.525.525,0,0,1-.031-.545,5.458,5.458,0,0,0,.4-.987.525.525,0,0,1,.392-.363l1.826-.4V7.52l-1.86-.3a.529.529,0,0,1-.414-.351,5.326,5.326,0,0,0-.417-.932.525.525,0,0,1,.023-.555L14.35,3.8,12.971,2.5,11.452,3.526a.384.384,0,0,1-.051.053.526.526,0,0,1-.574.083,5.271,5.271,0,0,0-.663-.249A.528.528,0,0,1,9.8,2.928L9.4,1.07H7.5L7.191,2.953l-.02,0a.635.635,0,0,1-.338.464,5.328,5.328,0,0,0-.683.26.527.527,0,0,1-.581-.086.45.45,0,0,1-.042-.043L4.07,2.449,2.7,3.763l.975,1.594a.547.547,0,0,1,.056.6,5.532,5.532,0,0,0-.4.9.526.526,0,0,1-.415.35l-1.859.3v1.9l1.826.4a.529.529,0,0,1,.392.364A5.382,5.382,0,0,0,3.693,11.2a.525.525,0,0,1-.013.522l-.954,1.583,1.378,1.306,1.4-1.063a.527.527,0,0,1,.554-.052,5.445,5.445,0,0,0,.8.318.529.529,0,0,1,.362.417Zm1.057-4.242A3.113,3.113,0,1,1,11.669,8.61,3.116,3.116,0,0,1,8.556,11.722Zm0-5.172a2.059,2.059,0,1,0,2.06,2.06A2.062,2.062,0,0,0,8.556,6.55Z" transform="translate(0 -2)" fill="#ec3737"/>
  </g>
</svg>
