<svg xmlns="http://www.w3.org/2000/svg" width="14.905" height="19.459" viewBox="0 0 14.905 19.459">
  <g id="notepad" transform="translate(-69.5 -12.5)">
    <g id="Group_254" data-name="Group 254" transform="translate(69.5 12.5)">
      <path id="Path_55" data-name="Path 55" d="M81.5,15.812V14.154H79.02V12.5H74.881v1.658H72.4v1.658H69.5V31.959H84.4V15.812Zm-5.8-2.485h2.485v.827H75.708v-.827Zm-2.485,1.658h7.45V17.47h-7.45ZM83.574,31.128H70.327V16.639H72.4v1.654H81.5V16.639h2.069Z" transform="translate(-69.5 -12.5)" fill="#ec3737"/>
      <rect id="Rectangle_332" data-name="Rectangle 332" width="0.827" height="0.827" transform="translate(2.481 8.401)" fill="#ec3737"/>
      <rect id="Rectangle_ec3737" data-name="Rectangle ec3737" width="0.827" height="0.827" transform="translate(2.481 11.797)" fill="#ec3737"/>
      <rect id="Rectangle_334" data-name="Rectangle 334" width="0.827" height="0.827" transform="translate(2.481 15.232)" fill="#ec3737"/>
      <rect id="Rectangle_335" data-name="Rectangle 335" width="8.281" height="0.827" transform="translate(4.139 8.401)" fill="#ec3737"/>
      <rect id="Rectangle_336" data-name="Rectangle 336" width="8.281" height="0.827" transform="translate(4.139 11.797)" fill="#ec3737"/>
      <rect id="Rectangle_337" data-name="Rectangle 337" width="8.281" height="0.827" transform="translate(4.139 15.232)" fill="#ec3737"/>
    </g>
  </g>
</svg>
